<?xml version="1.0" encoding="UTF-8" standalone="no"?>
<svg width="96px" height="84px" viewBox="0 0 96 84" version="1.1" xmlns="http://www.w3.org/2000/svg" xmlns:xlink="http://www.w3.org/1999/xlink" xmlns:sketch="http://www.bohemiancoding.com/sketch/ns">
    <!-- Generator: Sketch 3.3.2 (12043) - http://www.bohemiancoding.com/sketch -->
    <title>Shape</title>
    <desc>Created with Sketch.</desc>
    <defs></defs>
    <g id="Page-1" stroke="none" stroke-width="1" fill="none" fill-rule="evenodd" sketch:type="MSPage">
        <g id="Shape" sketch:type="MSLayerGroup" fill="#FFFFFF">
            <path d="M0.072,0.048 L12,0.048 L12,12 L0.072,12 L0.072,0.048 L0.072,0.048 Z M0.072,24 L12,24 L12,36 L0.072,36 L0.072,24 L0.072,24 Z M0.072,48 L12,48 L12,60 L0.072,60 L0.072,48 L0.072,48 Z M0.072,72 L12,72 L12,84 L0.072,84 L0.072,72 L0.072,72 Z M24,0.048 L96,0.048 L96,12 L24,12 L24,0.048 L24,0.048 Z M24,24 L96,24 L96,36 L24,36 L24,24 L24,24 Z M24,48 L96,48 L96,60 L24,60 L24,48 L24,48 Z M24,72 L96,72 L96,84 L24,84 L24,72 L24,72 Z" sketch:type="MSShapeGroup"></path>
        </g>
    </g>
</svg>