<?xml version="1.0" encoding="UTF-8" standalone="no"?>
<svg width="60px" height="60px" viewBox="0 0 60 60" version="1.1" xmlns="http://www.w3.org/2000/svg" xmlns:xlink="http://www.w3.org/1999/xlink" xmlns:sketch="http://www.bohemiancoding.com/sketch/ns">
    <!-- Generator: Sketch 3.3 (11970) - http://www.bohemiancoding.com/sketch -->
    <title>Rectangle 37 Copy</title>
    <desc>Created with Sketch.</desc>
    <defs></defs>
    <g id="Page-1" stroke="none" stroke-width="1" fill="none" fill-rule="evenodd" sketch:type="MSPage">
        <g id="Artboard-38" sketch:type="MSArtboardGroup" transform="translate(-235.000000, -192.000000)" fill="#FFFFFF">
            <path d="M275.947329,252 L287.00145,252 C291.426411,252 295,248.418927 295,244.00145 L295,199.99855 C295,195.573589 291.418927,192 287.00145,192 L242.99855,192 C238.573589,192 235,195.581073 235,199.99855 L235,244.00145 C235,248.426411 238.581073,252 242.99855,252 L267.126501,252 L267.126501,229.364046 L261,229.364046 L261,221.021759 L267.126501,221.021759 L267.126501,213.896309 C267.126501,208.296969 270.745498,203.155462 279.084634,203.155462 C282.460984,203.155462 284.957683,203.478691 284.957683,203.478691 L284.760954,211.269058 C284.760954,211.269058 282.214736,211.244298 279.436224,211.244298 C276.429022,211.244298 275.947329,212.629952 275.947329,214.930372 C275.947329,216.748649 275.947329,211.054322 275.947329,221.021759 L285,221.021759 L284.606092,229.364046 L275.947329,229.364046 L275.947329,252 Z" id="Rectangle-37-Copy" sketch:type="MSShapeGroup"></path>
        </g>
    </g>
</svg>