<?xml version="1.0" encoding="UTF-8" standalone="no"?>
<svg width="56px" height="56px" viewBox="0 0 56 56" version="1.1" xmlns="http://www.w3.org/2000/svg" xmlns:xlink="http://www.w3.org/1999/xlink" xmlns:sketch="http://www.bohemiancoding.com/sketch/ns">
    <!-- Generator: Sketch 3.3 (11970) - http://www.bohemiancoding.com/sketch -->
    <title>Imported Layers</title>
    <desc>Created with Sketch.</desc>
    <defs></defs>
    <g id="Page-1" stroke="none" stroke-width="1" fill="none" fill-rule="evenodd" sketch:type="MSPage">
        <g id="Artboard-38" sketch:type="MSArtboardGroup" transform="translate(-337.000000, -194.000000)" fill="#FFFFFF">
            <path d="M365.000225,194.5 C349.812433,194.5 337.5,206.812258 337.5,222.000113 C337.5,233.650177 344.748258,243.600902 354.978294,247.607888 C354.737722,245.432139 354.520825,242.094788 355.073666,239.719051 C355.573071,237.573289 358.298496,226.049711 358.298496,226.049711 C358.298496,226.049711 357.475547,224.402681 357.475547,221.967195 C357.475547,218.143513 359.692096,215.28866 362.451566,215.28866 C364.797758,215.28866 365.931172,217.050453 365.931172,219.162395 C365.931172,221.521899 364.429122,225.049543 363.653521,228.318352 C363.00576,231.056188 365.026154,233.288529 367.725875,233.288529 C372.613737,233.288529 376.370665,228.134372 376.370665,220.695114 C376.370665,214.110825 371.639727,209.50703 364.883885,209.50703 C357.059338,209.50703 352.466611,215.376141 352.466611,221.441182 C352.466611,223.804744 353.377039,226.33921 354.513159,227.717034 C354.737722,227.989397 354.770415,228.22794 354.703677,228.505489 C354.495122,229.374661 354.031114,231.242649 353.940026,231.624589 C353.820079,232.128055 353.541404,232.2347 353.020353,231.992324 C349.585615,230.393318 347.438284,225.371734 347.438284,221.338595 C347.438284,212.664008 353.741166,204.69716 365.608305,204.69716 C375.147741,204.69716 382.561716,211.49474 382.561716,220.579901 C382.561716,230.057598 376.585984,237.684895 368.291793,237.684895 C365.505042,237.684895 362.885587,236.237176 361.988911,234.527015 C361.988911,234.527015 360.609966,239.777897 360.275826,241.064407 C359.654669,243.452771 357.97856,246.446962 356.857547,248.273464 C359.430782,249.070261 362.165225,249.5 365.000225,249.5 C380.188018,249.5 392.5,237.187967 392.5,222.000113 C392.5,206.812258 380.188018,194.5 365.000225,194.5" id="Imported-Layers" sketch:type="MSShapeGroup"></path>
        </g>
    </g>
</svg>