<?xml version="1.0" encoding="UTF-8" standalone="no"?>
<svg width="30px" height="52px" viewBox="0 0 30 52" version="1.1" xmlns="http://www.w3.org/2000/svg" xmlns:xlink="http://www.w3.org/1999/xlink" xmlns:sketch="http://www.bohemiancoding.com/sketch/ns">
    <!-- Generator: Sketch 3.3 (11970) - http://www.bohemiancoding.com/sketch -->
    <title>Fill 2</title>
    <desc>Created with Sketch.</desc>
    <defs></defs>
    <g id="Page-1" stroke="none" stroke-width="1" fill="none" fill-rule="evenodd" sketch:type="MSPage">
        <g id="Artboard-38" sketch:type="MSArtboardGroup" transform="translate(-452.000000, -196.000000)" fill="#FFFFFF">
            <path d="M478.991476,237.230796 C478.043838,237.682905 476.230297,238.076264 474.879082,238.10947 C470.797338,238.219304 470.00551,235.243565 469.972305,233.085196 L469.972305,217.215438 L480.209869,217.215438 L480.209869,209.496396 L470.008065,209.496396 L470.008065,196.510424 L462.541897,196.510424 C462.419291,196.510424 462.204731,196.617703 462.17408,196.891012 C461.737298,200.865475 459.87778,207.841221 452.143412,210.630498 L452.143412,217.215438 L457.303063,217.215438 L457.303063,233.871915 C457.303063,239.575628 461.509966,247.677812 472.615987,247.486241 C476.36312,247.422384 480.524046,245.854055 481.443588,244.500285 L478.991476,237.230796" id="Fill-2" sketch:type="MSShapeGroup"></path>
        </g>
    </g>
</svg>