<?xml version="1.0" encoding="UTF-8" standalone="no"?>
<svg width="55px" height="47px" viewBox="0 0 55 47" version="1.1" xmlns="http://www.w3.org/2000/svg" xmlns:xlink="http://www.w3.org/1999/xlink" xmlns:sketch="http://www.bohemiancoding.com/sketch/ns">
    <!-- Generator: Sketch 3.3.2 (12043) - http://www.bohemiancoding.com/sketch -->
    <title>Imported Layers 7</title>
    <desc>Created with Sketch.</desc>
    <defs></defs>
    <g id="Page-1" stroke="none" stroke-width="1" fill="none" fill-rule="evenodd" sketch:type="MSPage">
        <g id="Artboard-5" sketch:type="MSArtboardGroup" transform="translate(-199.000000, -480.000000)" fill="#FFFFFF">
            <g id="Group" sketch:type="MSLayerGroup" transform="translate(92.000000, 462.000000)">
                <g id="Rectangle-244-+-Imported-Layers-7" transform="translate(94.000000, 0.000000)" sketch:type="MSShapeGroup">
                    <path d="M67.0967742,23.5143666 C65.1029935,24.4385838 62.9599097,25.0634146 60.7111484,25.3443902 C63.0062452,23.9058065 64.7694323,21.6282612 65.5996774,18.9142408 C63.4511742,20.2463257 61.0718065,21.2135956 58.539071,21.7344768 C56.5111484,19.4759087 53.6215484,18.0645161 50.4235871,18.0645161 C44.2834581,18.0645161 39.3049677,23.2679465 39.3049677,29.6864831 C39.3049677,30.5971046 39.403329,31.4842172 39.5930065,32.3350747 C30.3524645,31.8501652 22.1597548,27.2234146 16.6761806,20.1919434 C15.7191226,21.9083871 15.1706839,23.9046735 15.1706839,26.0346499 C15.1706839,30.0668765 17.1335742,33.624107 20.116929,35.7081983 C18.2944,35.6478678 16.5799871,35.1250039 15.0809935,34.2546027 C15.0799097,34.3033202 15.0799097,34.3517545 15.0799097,34.4007553 C15.0799097,40.0318804 18.9124774,44.7288749 23.9988129,45.7969788 C23.065871,46.0623761 22.0836129,46.2045633 21.0696516,46.2045633 C20.3532129,46.2045633 19.6565548,46.131487 18.9777806,45.9960976 C20.3925032,50.6132179 24.4987484,53.9735956 29.3639742,54.0670653 C25.5587742,57.1844217 20.7648129,59.042203 15.5554581,59.042203 C14.6580129,59.042203 13.7730323,58.9872541 12.9032258,58.8796223 C17.823729,62.1774036 23.6679613,64.1017467 29.9468258,64.1017467 C50.3975742,64.1017467 61.5812258,46.3920692 61.5812258,31.0341463 C61.5812258,30.5302596 61.5703871,30.0289221 61.5487097,29.530417 C63.721329,27.8918647 65.6061806,25.844878 67.0967742,23.5143666" id="Imported-Layers-7"></path>
                </g>
            </g>
        </g>
    </g>
</svg>