<?xml version="1.0" encoding="UTF-8" standalone="no"?>
<svg width="54px" height="57px" viewBox="0 0 54 57" version="1.1" xmlns="http://www.w3.org/2000/svg" xmlns:xlink="http://www.w3.org/1999/xlink" xmlns:sketch="http://www.bohemiancoding.com/sketch/ns">
    <!-- Generator: Sketch 3.3.2 (12043) - http://www.bohemiancoding.com/sketch -->
    <title>Imported Layers 2</title>
    <desc>Created with Sketch.</desc>
    <defs></defs>
    <g id="Page-1" stroke="none" stroke-width="1" fill="none" fill-rule="evenodd" sketch:type="MSPage">
        <g id="Artboard-5" sketch:type="MSArtboardGroup" transform="translate(-387.000000, -473.000000)" fill="#FFFFFF">
            <g id="Group" sketch:type="MSLayerGroup" transform="translate(92.000000, 462.000000)">
                <g id="Rectangle-245-+-Imported-Layers-2" transform="translate(282.000000, 0.000000)" sketch:type="MSShapeGroup">
                    <path d="M40.7605411,11.6129032 C26.2681374,11.6129032 14.5195005,23.7256324 14.5195005,38.6680594 C14.5195005,43.778638 15.8953174,48.5593856 18.285078,52.6381157 L13.5483871,67.1524834 L28.0766285,62.3573169 C31.8360874,64.5003175 36.159334,65.7223144 40.7605411,65.7223144 C55.2529448,65.7223144 67.0015817,53.6086841 67.0015817,38.6680594 C67.0015817,23.7256324 55.2529448,11.6129032 40.7605411,11.6129032 L40.7605411,11.6129032 Z M40.7605411,61.1893907 C36.3236629,61.1893907 32.1918418,59.8168971 28.7418106,57.4657245 L20.3470552,60.2359447 L23.0759625,51.8730159 C20.4606868,48.1592627 18.9152966,43.5966001 18.9152966,38.6680594 C18.9152966,26.2480287 28.7155879,16.1440246 40.7605411,16.1440246 C52.8063684,16.1440246 62.6057856,26.2480287 62.6057856,38.6680594 C62.6057856,51.0862878 52.8063684,61.1893907 40.7605411,61.1893907 L40.7605411,61.1893907 Z M53.0642248,44.8149923 C52.4060354,44.4437071 49.1745265,42.6458577 48.5687825,42.3908244 C47.9630385,42.1375934 47.5207492,42.0051203 47.0487409,42.6801024 C46.5767326,43.352381 45.2367534,44.8582488 44.8294277,45.3043318 C44.4212279,45.7504147 44.0287617,45.7918689 43.3714464,45.4196825 C42.7141311,45.0492985 40.5822268,44.2355351 38.1094277,41.785233 C36.1855567,39.878341 34.9233715,37.5641167 34.557128,36.8584946 C34.1908845,36.1528725 34.5545057,35.7924014 34.9023933,35.4616692 C35.2144433,35.1633794 35.6016649,34.6803482 35.9513007,34.2901382 C36.3000624,33.8999283 36.4233091,33.6169585 36.6628096,33.1645673 C36.9023101,32.7121761 36.8061602,32.3048438 36.6505723,31.9524834 C36.4958585,31.6010241 35.2791259,28.1513159 34.7712799,26.7472811 C34.2634339,25.3432463 33.697898,25.5523195 33.30718,25.5369995 C32.9155879,25.5216795 32.4715505,25.4468817 32.0248907,25.4297593 C31.578231,25.412637 30.845744,25.5568254 30.2076587,26.2245981 C29.5686993,26.8914695 27.7768158,28.4955658 27.6535692,31.8939068 C27.5303226,35.2913466 29.8108221,38.6680594 30.1289906,39.1402765 C30.4471592,39.614296 34.4837045,46.9796211 41.1923413,50.0084793 C47.9018522,53.0373374 47.9359417,52.1145315 49.1675338,52.046042 C50.3991259,51.9793548 53.1909677,50.5284588 53.8080749,48.9378802 C54.4251821,47.3473016 54.4750052,45.964895 54.3185432,45.6702099 C54.1612071,45.376426 53.720666,45.1853763 53.0642248,44.8149923 L53.0642248,44.8149923 Z" id="Imported-Layers-2"></path>
                </g>
            </g>
        </g>
    </g>
</svg>